# xmcd
#
# Track frame offsets:
#	150
#	16256
#	36987
#	51888
#	68820
#	85152
#	102248
#	117756
#	135000
#	149874
#	169531
#	183344
#
# Disc length: 2659 seconds
# Revision: 0
# Processed by: cddbd v1.5.2PL0 Copyright (c) Steve Scherf et al.
# Submitted via: dBpowerAMP V12.0
#
DISCID=9c0a610c
DTITLE=Ann Claire - Honkytonk Princess
DYEAR=2010
DGENRE=Country
TTITLE0=Better Girl
TTITLE1=Dark Horse (feat. Travis Howard)
TTITLE2=Lucky Me
TTITLE3=Good Enough
TTITLE4=Honkytonk Princess
TTITLE5=Here To Home
TTITLE6=Let`s Go to Mexico
TTITLE7=Way That I Do
TTITLE8=Go With Me
TTITLE9=If I Leave Here Tonight
TTITLE10=Gettin` Good at This
TTITLE11=Somewhere
EXTD=
EXTT0=
EXTT1=
EXTT2=
EXTT3=
EXTT4=
EXTT5=
EXTT6=
EXTT7=
EXTT8=
EXTT9=
EXTT10=
EXTT11=
PLAYORDER=
